<svg xmlns="http://www.w3.org/2000/svg" viewBox="0 0 438 200"><path d="M128.49 934.692c-8.883 0-16.109 7.212-16.109 16.078s7.226 16.078 16.108 16.078 16.108-7.212 16.108-16.078c0-5.7-3.069-11.027-8.008-13.902a16.1 16.1 0 0 0-8.1-2.176m0 38.57c-6.173 0-11.777-2.395-15.863-6.41-.01-.014-.022-.022-.033-.033-4.15-4.096-6.725-9.778-6.725-16.05 0-12.449 10.148-22.578 22.621-22.578 4.004 0 7.938 1.059 11.38 3.06 6.933 4.037 11.242 11.515 11.242 19.519 0 6.285-2.587 11.978-6.754 16.076-4.086 4.018-9.692 6.416-15.868 6.416" style="clip-rule:evenodd;fill:#5eb957;fill-opacity:1;fill-rule:nonzero;stroke:none;stroke-linejoin:round;stroke-miterlimit:2;stroke-opacity:1" transform="matrix(1 0 0 1 -34.19 -882.366)"/><path d="M37.599 1043.022q-1.267 0-1.99-.784t-.724-1.93q0-.483.302-1.206l15.378-36.306q.422-.965 1.267-1.689.904-.784 2.231-.784h.603q1.387 0 2.232.784.844.724 1.266 1.689l15.379 36.306q.301.723.301 1.206 0 1.146-.723 1.93-.724.784-1.99.784-1.87 0-2.594-1.689l-3.92-9.408H44.112l-3.92 9.408q-.723 1.689-2.593 1.689zm8.624-16.103h16.283l-8.141-19.6zM112.369 1051.753q-1.137 0-1.914-.957l-6.518-7.774q-.838.12-1.735.18t-1.853.06q-6.4 0-11.064-2.752-4.664-2.75-7.236-7.594t-2.691-11.124q.12-6.279 2.691-11.123 2.572-4.844 7.236-7.595 4.665-2.75 11.064-2.75 6.398 0 11.063 2.75 4.664 2.751 7.236 7.595t2.691 11.123q-.12 6.997-3.409 12.26-3.229 5.203-8.97 7.595l5.263 5.8q.717.718.717 1.735.06 1.016-.717 1.794-.778.777-1.854.777zm-12.02-13.575q4.963 0 8.432-2.153 3.468-2.213 5.262-5.92 1.854-3.708 1.854-8.313 0-4.604-1.854-8.312-1.794-3.708-5.262-5.861-3.469-2.213-8.432-2.213t-8.433 2.213q-3.468 2.153-5.322 5.86-1.794 3.709-1.794 8.313t1.794 8.313q1.854 3.708 5.322 5.92 3.469 2.153 8.433 2.153zM129.829 1043.022q-1.267 0-1.99-.784t-.724-1.93q0-.483.301-1.206l15.38-36.306q.421-.965 1.266-1.689.904-.784 2.231-.784h.603q1.387 0 2.231.784.845.724 1.267 1.689l15.379 36.306q.301.723.301 1.206 0 1.146-.724 1.93-.723.784-1.99.784-1.87 0-2.593-1.689l-3.92-9.408h-20.505l-3.92 9.408q-.724 1.689-2.593 1.689zm8.624-16.103h16.283l-8.141-19.6zM177.66 1042.72q-1.147 0-1.93-.784-.785-.784-.785-1.93v-36.909q0-1.145.784-1.93.784-.844 1.93-.844h14.052q5.73 0 9.348 1.629 3.618 1.628 5.307 4.402 1.749 2.714 1.749 6.212t-1.99 6.513q-1.93 3.016-5.91 4.403 2.532.663 4.04 2.412 1.508 1.689 2.232 3.86.784 2.171 1.025 4.221.241 1.99.241 3.257v2.774q0 1.146-.784 1.93t-1.93.784q-1.266 0-2.05-.724-.724-.784-.724-1.99v-1.809q0-1.508-.241-3.558-.181-2.05-1.025-4.04-.845-1.991-2.775-3.257-1.87-1.327-5.307-1.327h-12.484v13.991q0 1.146-.844 1.93-.784.784-1.93.784zm2.773-21.892h10.916q5.066 0 8.142-1.99 3.136-1.99 3.136-5.85 0-2.231-1.025-3.92-1.026-1.689-3.559-2.593-2.533-.965-6.995-.965h-10.615z" style="font-style:normal;font-variant:normal;font-weight:400;font-stretch:normal;font-size:medium;line-height:175%;font-family:&quot;Varela Round&quot;;-inkscape-font-specification:&quot;Varela Round&quot;;text-align:start;letter-spacing:0;word-spacing:0;writing-mode:lr-tb;text-anchor:start;fill:#5eb957;fill-opacity:1;stroke:#5eb957;stroke-width:1.21700001;stroke-linecap:butt;stroke-linejoin:miter;stroke-miterlimit:4;stroke-dasharray:none;stroke-opacity:1" transform="matrix(1 0 0 1 -34.19 -882.366)"/><path d="M204.698 973.263H97.634a3.21 3.21 0 0 1-3.214-3.208 3.21 3.21 0 0 1 3.214-3.207h107.064a3.21 3.21 0 0 1 3.214 3.207 3.21 3.21 0 0 1-3.214 3.208" style="clip-rule:evenodd;fill:#5eb957;fill-opacity:1;fill-rule:nonzero;stroke:none;stroke-linejoin:round;stroke-miterlimit:2;stroke-opacity:1" transform="matrix(1 0 0 1 -34.19 -882.366)"/><path d="M97.634 973.309c-13.777 0-24.989-11.19-24.989-24.943V915.57a3.21 3.21 0 0 1 3.214-3.207 3.21 3.21 0 0 1 3.213 3.207v32.797c0 10.217 8.327 18.528 18.562 18.528a3.21 3.21 0 0 1 3.214 3.207 3.21 3.21 0 0 1-3.214 3.208M38.099 981.778a3.21 3.21 0 0 1-3.214-3.208 3.21 3.21 0 0 1 3.214-3.207c10.236 0 18.562-8.312 18.562-18.529v-25.476a3.21 3.21 0 0 1 3.213-3.207 3.21 3.21 0 0 1 3.214 3.207v25.476c0 13.754-11.212 24.944-24.989 24.944M126.137 916.89c0-2.5-2.03-4.528-4.535-4.528a4.53 4.53 0 0 0-4.537 4.528c0 2.5 2.032 4.528 4.537 4.528a4.53 4.53 0 0 0 4.535-4.528M139.914 916.89c0-2.5-2.031-4.528-4.537-4.528a4.53 4.53 0 0 0-4.536 4.528c0 2.5 2.03 4.528 4.536 4.528a4.53 4.53 0 0 0 4.537-4.528M186.239 928.19c-12.473 0-22.621 10.13-22.621 22.58 0 6.271 2.575 11.954 6.726 16.05.01.013.021.02.032.031 4.086 4.016 9.69 6.412 15.863 6.412 6.174 0 11.78-2.398 15.867-6.416h-16.008c-8.817-.076-15.968-7.255-15.968-16.074 0-8.866 7.226-16.078 16.108-16.078 2.852 0 5.652.753 8.1 2.177a16.03 16.03 0 0 1 6.919 8.13c.004.012.015.016.02.025a3.25 3.25 0 0 0 2.453 1.99 3.25 3.25 0 0 0 3.23-1.337 3.25 3.25 0 0 0 .364-3.048h-.001l-.012-.032-.06-.144a22.58 22.58 0 0 0-9.632-11.197 22.66 22.66 0 0 0-11.38-3.061z" style="clip-rule:evenodd;fill:#5eb957;fill-opacity:1;fill-rule:nonzero;stroke:none;stroke-linejoin:round;stroke-miterlimit:2;stroke-opacity:1" transform="matrix(1 0 0 1 -34.19 -882.366)"/><path d="M100.404 892.362a2.82 2.82 0 0 1-2.417-1.366l-28.971-48.195-16.685-14.123a2.81 2.81 0 0 1-.996-2.146v-23.62l-8.272-12.758-12.301-11.09a2.81 2.81 0 0 1-.929-2.089v-9.28L7.07 733.222l-6.036-4.142a2.81 2.81 0 0 1-1.123-3.06l4.868-17.817a2.816 2.816 0 0 1 2.72-2.074h10.86l5.646-6.693a2.8 2.8 0 0 1 1.428-.905l22.717-6.074a2.82 2.82 0 0 1 2.697.702l14.065 13.66 10.455-1.08a2.8 2.8 0 0 1 1.251.154l22.033 7.963 7.283-5.886a2.83 2.83 0 0 1 3.068-.312l11.519 5.934 4.956-1.648a2.8 2.8 0 0 1 1.512-.076l28.805 6.479a2.82 2.82 0 0 1 1.572.973l19.067 23.487c.34.418.552.926.612 1.461l1.55 13.93 6.941 10.939 8.223 4.105c.494.246.906.632 1.182 1.11l11.494 19.888 25.034 3.845a2.8 2.8 0 0 1 1.647.874l9.331 10.123c.63.686.882 1.639.67 2.546l-6.835 29.232a2.82 2.82 0 0 1-1.948 2.06l-67.817 19.932-17.304 20.414a2.824 2.824 0 0 1-3.566.618l-7.07-4.085-28.871-.374-6.878 11.56a2.82 2.82 0 0 1-2.417 1.376h-.007z" style="clip-rule:evenodd;fill:#5eb957;fill-opacity:1;fill-rule:nonzero;stroke:none;stroke-width:2.13649988;stroke-linejoin:round;stroke-miterlimit:4;stroke-dasharray:none;stroke-opacity:1" transform="translate(194.724 -692.362)"/><path d="M118.024 838.914a2.22 2.22 0 0 1-1.925-1.109l-24.882-43.017c-5.596-9.673-5.597-21.223 0-30.896 5.595-9.673 15.616-15.448 26.807-15.448s21.211 5.775 26.807 15.448c5.595 9.673 5.595 21.223 0 30.896l-24.882 43.017a2.22 2.22 0 0 1-1.925 1.11" style="clip-rule:evenodd;fill:#fff;fill-opacity:1;fill-rule:nonzero;stroke:none;stroke-width:2.13649988;stroke-linejoin:round;stroke-miterlimit:4;stroke-dasharray:none;stroke-opacity:1" transform="translate(194.724 -692.362)"/><path d="M118.024 793.09c-7.393 0-13.406-6.002-13.406-13.38 0-7.38 6.013-13.382 13.406-13.382s13.406 6.002 13.406 13.382c0 7.378-6.013 13.38-13.406 13.38" style="clip-rule:evenodd;fill:#5eb957;fill-opacity:1;fill-rule:nonzero;stroke:none;stroke-width:2.13649988;stroke-linejoin:round;stroke-miterlimit:4;stroke-dasharray:none;stroke-opacity:1" transform="translate(194.724 -692.362)"/></svg>