<svg xmlns="http://www.w3.org/2000/svg" viewBox="0 0 294.574 114.998"><g transform="translate(0)"><path d="M689.933,446.561l-29.738-25.24L654.33,435.9,675,453.389Z" transform="translate(-630.8 -412.379)" fill="#00fad7"></path><path d="M644.108,404.587l-14.819,6.847,29.738,25.24L610.16,459.026l-8.136,20.242,84.351-38.8Z" transform="translate(-599.895 -402.491)" fill="#fff"></path><path d="M668.162,586.6l29.94,25.389,5.836-14.512-20.821-17.763Z" transform="translate(-638.973 -505.968)" fill="#fff"></path><path d="M644.01,567.213l15.013-6.878-29.939-25.389,49.192-22.652,8.1-20-84.351,38.8Z" transform="translate(-599.895 -454.311)" fill="#00fad7"></path><path d="M685.436,436.918l-44.117-37.453-16.494,7.621-6.609,16.434,19.511,16.5L605.7,454.675l-8.877,22.086,43.819,37.7,16.7-7.65,6.579-16.36L644.24,473.666l32.348-14.9ZM622.483,422.46l4.462-11.1,25.717,21.826-11.354,5.194Zm-14.01,34.864L659.243,434.1,629.5,408.854l11.252-5.2,39.268,33.337-77.742,35.759ZM659.653,491.5l-4.436,11.031-25.922-21.983,11.379-5.24Zm-36.929-11.85,29.935,25.385-11.427,5.235L602.216,476.7l77.746-35.76-6.147,15.183Z" transform="translate(-596.82 -399.465)" fill="#1d1d1b"></path><path d="M0,56.374c0-8.987,6.531-15.912,15.912-15.912A15.045,15.045,0,0,1,30.9,51.859H23.934a8.459,8.459,0,0,0-8.022-5.085c-5.523,0-9.161,4.12-9.161,9.6,0,5.523,3.682,9.731,9.205,9.731,3.726,0,6.751-1.446,8.285-4.777H16.132V55.8H31.474C31.254,67.771,22.926,72.33,15.912,72.33,6.531,72.286,0,65.4,0,56.374ZM148.231,71.739V47.191h-8.2V41.053h22.882v6.137h-8.2V71.739Zm28.231-.022V58.829l-10.828-17.8h7.5l6.224,11h.483l6.269-11h7.671l-10.827,17.8V71.717Zm-93.6,0L80.889,65.58H68.834l-1.972,6.137H59.848L70.237,41.032h9.206l10.3,30.685Zm-12.142-12.1h8.241l-3.9-12.011h-.482Zm49.667,12.1V65.755h4.121V46.993h-4.121V41.032h14.86v5.962h-4.208V65.755h4.208v5.962Zm-23.709,0-9.95-30.685H93.74l7.031,24.11h.772l7.584-24.11h7.233L106.1,71.716Zm-45.928,0L45.1,60.626H41.982v11.09H35.451V41.032H46.015c6.444,0,10.96,3.858,10.96,9.6a9.374,9.374,0,0,1-5.48,8.986l6.707,12.1ZM41.982,54.708H46.1a3.74,3.74,0,0,0,4.076-3.945c0-1.973-1.359-3.638-4.3-3.638h-3.9Zm40.963-38.84a16,16,0,0,1,32,0,16,16,0,0,1-32,0Zm6.751,0c0,5.567,3.9,9.644,9.249,9.644,5.26,0,9.25-4.077,9.25-9.644a9.189,9.189,0,0,0-9.25-9.556C93.6,6.312,89.7,10.389,89.7,15.868ZM72.183,31.254l-5.655-11.09H63.416v11.09H56.884V.57H67.448c6.444,0,10.959,3.857,10.959,9.6a9.374,9.374,0,0,1-5.48,8.986l6.707,12.1ZM63.416,14.246h4.121A3.74,3.74,0,0,0,71.613,10.3c0-1.973-1.359-3.638-4.3-3.638h-3.9ZM31.346,31.254V.57H50.634V6.707H37.878v5.918h11v6.093h-11v6.444H51.072v6.093Zm-30.47,0V22.444L18.1,6.969V6.487H1.359V.569H24.636v8.9L7.452,24.854v.482H24.723v5.918Z" transform="translate(100.797 26.104)"></path></g></svg>